<svg width="2000" height="444" viewBox="0 0 2000 444" fill="none" xmlns="http://www.w3.org/2000/svg">
<path d="M0 9.4297H277.28V55.1332H52.2447V194.028H257.316V239.137H52.2447V387.716H277.195V433.419H0V9.34473V9.4297Z" fill="black"/>
<path d="M850.274 27.5241C800.918 27.5241 763.964 49.1865 765.408 90.8124C769.231 200.994 1025.53 195.217 1030.29 329.694C1032.75 400.203 972.943 443.104 891.9 443.104C745.615 443.104 690.652 309.901 652.849 215.775C603.407 91.4921 558.638 27.609 468.42 27.609C415.581 27.609 378.627 49.2715 380.071 90.8974C383.894 201.079 633.905 195.302 638.577 329.779C641.04 400.288 574.864 443.189 500.957 443.189C443.87 443.189 387.717 429.087 358.409 417.618L315.339 292.656L330.545 289.173C390.096 378.796 439.027 414.9 503.165 414.9C559.573 414.9 590.07 390.689 588.541 347.789C584.463 231.151 341.079 242.705 336.407 108.227C334.283 47.3176 388.991 0 466.466 0C612.327 0 663.213 124.283 696.343 206.261C748.078 336.235 797.69 414.9 891.391 414.9C944.74 414.9 981.863 390.689 980.334 347.789C976.257 231.151 726.501 242.705 721.829 108.227C719.705 47.3176 775.857 0 860.383 0C913.223 0 950.177 9.59945 982.288 19.2838L1019.41 135.921L1004.21 139.404C962.919 67.6208 913.903 27.7789 850.444 27.7789L850.274 27.5241Z" fill="black"/>
<path d="M1069.28 221.805C1069.28 91.3203 1167.91 0.422852 1290.07 0.422852C1412.22 0.422852 1510.26 91.2353 1510.26 221.805C1510.26 352.374 1411.63 442.592 1290.07 442.592C1168.5 442.592 1069.28 351.78 1069.28 221.805ZM1290.07 396.294C1383.85 396.294 1454.28 329.522 1454.28 221.805C1454.28 114.087 1383.85 46.7211 1290.07 46.7211C1196.28 46.7211 1124.67 113.492 1124.67 221.805C1124.67 330.117 1196.28 396.294 1290.07 396.294Z" fill="black"/>
<path d="M1567.09 305.312H1618.83C1623.67 348.637 1654.25 397.313 1736.14 397.313C1811.41 397.313 1845.05 360.02 1845.05 322.047C1845.05 284.074 1825.17 258.249 1754.24 245.081L1709.72 236.671C1620.69 221.04 1585.27 182.558 1585.27 118.76C1585.27 54.9614 1639.98 0.253052 1729.01 0.253052C1837.32 0.253052 1883.02 67.0244 1889.65 129.548H1837.32C1828.91 84.4394 1800.03 44.1727 1729.6 44.1727C1663.42 44.1727 1635.22 82.0607 1635.22 114.597C1635.22 154.269 1656.29 172.958 1721.79 185.021L1766.3 193.431C1851.08 208.468 1900.44 248.734 1900.44 318.479C1900.44 388.224 1837.23 442.422 1736.23 442.422C1629.19 442.422 1572.02 380.408 1567.18 305.312H1567.09Z" fill="black"/>
<path d="M1980.21 50.4582H1972.31C1968.4 39.5844 1965.26 27.0117 1961.26 15.2885H1960.92C1961.01 21.32 1961.01 29.2204 1961.01 36.1864V50.4582H1952.68V8.23761H1966.95C1970.52 19.5361 1975.28 35.252 1976.64 39.5845C1978.25 34.4025 1983.18 17.8371 1986.15 8.23761H2000V50.4582H1991.51V30.07C1991.51 24.803 1991.59 19.3662 1991.59 15.2036H1991.25C1987.6 26.502 1983.94 39.0747 1980.04 50.4582H1980.21ZM1946.74 8.23761V15.0337H1936.12V50.4582H1927.45V15.0337H1916.83V8.23761H1946.74Z" fill="black"/>
</svg>
